<svg aria-hidden="true" focusable="false" class="fl-neutral-secondary" width="24" height="24" xmlns="http://www.w3.org/2000/svg" xmlns:xlink="http://www.w3.org/1999/xlink" viewBox="0 0 24 24" id="locate-me"><defs><path d="M11.5 18a5.5 5.5 0 100-11 5.5 5.5 0 000 11zM12 4v2.019a6.501 6.501 0 015.981 5.982L20 12v1h-2.019a6.501 6.501 0 01-5.98 5.981L12 21h-1v-2.019a6.501 6.501 0 01-5.981-5.98L3 13v-1h2.019A6.501 6.501 0 0111 6.02L11 4h1zm-.5 11a2.5 2.5 0 100-5 2.5 2.5 0 000 5zm0 1a3.5 3.5 0 110-7 3.5 3.5 0 010 7zm0-2.5a1 1 0 100-2 1 1 0 000 2z" id="sIcLocateRound"></path></defs><use xlink:href="#sIcLocateRound" fill-rule="evenodd"></use></svg>